# xmcd
#
# Track frame offsets: 
#        150
#        9738
#        29322
#        33568
#        46417
#        61463
#        77384
#        94032
#        102340
#        111005
#        122350
#        136216
#        140800
#        156588
#        171257
#
# Disc length: 2427 seconds
#
# Revision: 4
# Processed by: cddbd v1.5.2PL0 Copyright (c) Steve Scherf et al.
# Submitted via: ExactAudioCopyFreeDBPlugin 1.0
#
DISCID=c709790f
DTITLE=Broken Circle Breakdown Bluegrass Band, The - The Broken Circle
DTITLE=Breakdown - Soundtrack -
DYEAR=2012
DGENRE=Blues Country Bluegrass Rock
TTITLE0=Will The Circle Be Unbroken
TTITLE1=The Boy Who Wouldn't Hoe Corn
TTITLE2=Dusty Mixed Feelings
TTITLE3=Wayfaring Stranger
TTITLE4=Rueben's Train
TTITLE5=Country In My Genes
TTITLE6=Futher On Up The Road
TTITLE7=Where Are You Heading,Tumbleweed?
TTITLE8=Over In The Gloryland
TTITLE9=Cowboy Man
TTITLE10=If I Needed You
TTITLE11=Carved Tree Inn
TTITLE12=Sand Mountain
TTITLE13=Sister Rosetta Goes Before Us
TTITLE14=Blackberry Blossom
EXTD=
EXTT0=
EXTT1=
EXTT2=
EXTT3=
EXTT4=
EXTT5=
EXTT6=
EXTT7=
EXTT8=
EXTT9=
EXTT10=
EXTT11=
EXTT12=
EXTT13=
EXTT14=
PLAYORDER=
